<svg width="26" height="16" viewBox="0 0 26 16" fill="none" xmlns="http://www.w3.org/2000/svg">
<path fill-rule="evenodd" clip-rule="evenodd" d="M25.4042 1.44363C25.584 0.852126 25.4042 0.416626 24.5429 0.416626H21.6992C20.9755 0.416626 20.6418 0.792543 20.4609 1.20746C20.4609 1.20746 19.0147 4.66979 16.9661 6.9188C16.3031 7.57096 16.0019 7.77788 15.6401 7.77788C15.4592 7.77788 15.1873 7.57096 15.1873 6.97838V1.44363C15.1873 0.732959 14.9879 0.416626 14.3856 0.416626H9.91358C9.46183 0.416626 9.18992 0.745959 9.18992 1.05904C9.18992 1.73179 10.2148 1.88779 10.3198 3.78146V7.89596C10.3198 8.79838 10.1541 8.96196 9.79225 8.96196C8.82808 8.96196 6.48267 5.48338 5.09058 1.50321C4.82083 0.728626 4.54783 0.416626 3.82092 0.416626H0.975C0.1625 0.416626 0 0.792543 0 1.20746C0 1.94629 0.964167 5.61663 4.49042 10.471C6.84125 13.786 10.1508 15.5833 13.1658 15.5833C14.9738 15.5833 15.197 15.1846 15.197 14.4967V11.991C15.197 11.1925 15.3682 11.0333 15.9413 11.0333C16.3638 11.0333 17.0863 11.2413 18.7742 12.8392C20.7025 14.734 21.0199 15.5833 22.1054 15.5833H24.9492C25.7617 15.5833 26.169 15.1846 25.935 14.396C25.6772 13.6116 24.7563 12.473 23.5354 11.1221C22.8724 10.353 21.8779 9.52421 21.5757 9.1093C21.1543 8.57738 21.2745 8.34013 21.5757 7.86671C21.5757 7.86671 25.0423 3.07188 25.4031 1.44363H25.4042Z" fill="white"/>
</svg>
