<svg width="25" height="21" viewBox="0 0 25 21" fill="none" xmlns="http://www.w3.org/2000/svg">
<path d="M24.6138 3.3483C23.7092 3.74913 22.7375 4.01996 21.7159 4.14238C22.77 3.51166 23.5586 2.51897 23.9345 1.34955C22.9442 1.93779 21.8603 2.35184 20.73 2.57371C19.97 1.76215 18.9632 1.22423 17.8661 1.04348C16.7689 0.86272 15.6428 1.04924 14.6625 1.57407C13.6823 2.0989 12.9027 2.93269 12.4449 3.94598C11.987 4.95926 11.8765 6.09536 12.1305 7.17788C10.1239 7.07713 8.16081 6.55556 6.36875 5.64703C4.5767 4.7385 2.9957 3.4633 1.72837 1.90421C1.29504 2.65171 1.04588 3.51838 1.04588 4.44138C1.04539 5.27229 1.25001 6.09048 1.64158 6.82334C2.03314 7.5562 2.59955 8.18109 3.29054 8.64255C2.48917 8.61705 1.70549 8.40051 1.00471 8.01096V8.07596C1.00463 9.24135 1.40774 10.3709 2.14566 11.2729C2.88357 12.1749 3.91083 12.7938 5.05313 13.0246C4.30972 13.2258 3.53032 13.2555 2.77379 13.1113C3.09608 14.114 3.72387 14.9909 4.56927 15.6191C5.41468 16.2474 6.43537 16.5955 7.48846 16.6148C5.70078 18.0182 3.493 18.7794 1.22029 18.776C0.817704 18.7762 0.415458 18.7526 0.015625 18.7056C2.32256 20.1889 5.00799 20.9761 7.75063 20.973C17.0348 20.973 22.1102 13.2835 22.1102 6.61455C22.1102 6.39788 22.1048 6.17905 22.095 5.96238C23.0823 5.24844 23.9344 4.36435 24.6116 3.35155L24.6138 3.3483Z" fill="white"/>
</svg>
