<svg width="14" height="14" viewBox="0 0 14 14" fill="none" xmlns="http://www.w3.org/2000/svg">
<path d="M13.3092 6.13326C13.3088 6.13295 13.3085 6.13254 13.3082 6.13224L7.86873 0.692948C7.63688 0.460991 7.32862 0.333313 7.00073 0.333313C6.67283 0.333313 6.36457 0.460991 6.13262 0.692948L0.695973 6.12949C0.694142 6.13132 0.692209 6.13326 0.690479 6.13509C0.214357 6.61396 0.215171 7.39091 0.692819 7.86856C0.911042 8.08688 1.19916 8.21324 1.50731 8.22656C1.51993 8.22779 1.53254 8.2284 1.54526 8.2284H1.76196V12.2313C1.76196 13.0235 2.40655 13.668 3.19877 13.668H5.32687C5.54265 13.668 5.71754 13.493 5.71754 13.2773V10.139C5.71754 9.77752 6.01165 9.48351 6.37312 9.48351H7.62833C7.9898 9.48351 8.28382 9.77752 8.28382 10.139V13.2773C8.28382 13.493 8.4587 13.668 8.67448 13.668H10.8026C11.5949 13.668 12.2394 13.0235 12.2394 12.2313V8.2284H12.4404C12.7682 8.2284 13.0765 8.10072 13.3085 7.86866C13.7867 7.3903 13.7869 6.61192 13.3092 6.13326ZM12.756 7.31624C12.6717 7.40057 12.5596 7.44707 12.4404 7.44707H11.8487C11.6329 7.44707 11.4581 7.62195 11.4581 7.83773V12.2313C11.4581 12.5926 11.1641 12.8867 10.8026 12.8867H9.06514V10.139C9.06514 9.34678 8.42065 8.70218 7.62833 8.70218H6.37312C5.5808 8.70218 4.93621 9.34678 4.93621 10.139V12.8867H3.19877C2.8374 12.8867 2.54329 12.5926 2.54329 12.2313V7.83773C2.54329 7.62195 2.3684 7.44707 2.15262 7.44707H1.5711C1.565 7.44666 1.559 7.44635 1.55279 7.44625C1.4364 7.44422 1.32724 7.39803 1.24545 7.31613C1.07148 7.14217 1.07148 6.85904 1.24545 6.68497C1.24534 6.68507 1.24555 6.68497 1.24545 6.68497L6.68525 1.24537C6.76948 1.16103 6.88149 1.11464 7.00073 1.11464C7.11986 1.11464 7.23187 1.16103 7.31621 1.24537L12.7543 6.68334C12.7551 6.68415 12.756 6.68497 12.7568 6.68578C12.9299 6.86005 12.9296 7.14257 12.756 7.31624Z" fill="#161C24"/>
<path d="M12.756 7.31624C12.6717 7.40057 12.5596 7.44707 12.4404 7.44707H11.8487C11.6329 7.44707 11.4581 7.62195 11.4581 7.83773V12.2313C11.4581 12.5926 11.1641 12.8867 10.8026 12.8867H9.06514V10.139C9.06514 9.34678 8.42065 8.70218 7.62833 8.70218H6.37312C5.5808 8.70218 4.93621 9.34678 4.93621 10.139V12.8867H3.19877C2.8374 12.8867 2.54329 12.5926 2.54329 12.2313V7.83773C2.54329 7.62195 2.3684 7.44707 2.15262 7.44707H1.5711C1.565 7.44666 1.559 7.44635 1.55279 7.44625C1.4364 7.44422 1.32724 7.39803 1.24545 7.31613C1.07148 7.14217 1.07148 6.85904 1.24545 6.68497L6.68525 1.24537C6.76948 1.16103 6.88149 1.11464 7.00073 1.11464C7.11986 1.11464 7.23187 1.16103 7.31621 1.24537L12.7543 6.68334L12.7568 6.68578C12.9299 6.86005 12.9296 7.14257 12.756 7.31624Z" fill="#161C24"/>
</svg>
